HIERARCHY
ROOT root
{
	OFFSET 0.000000 0.000000 0.000000
	CHANNELS 6 Xposition Yposition Zposition Zrotation Yrotation Xrotation
	JOINT lhip
	{
		OFFSET 0.058581 -0.082280 -0.017664
		CHANNELS 3 Zrotation Yrotation Xrotation
		JOINT lknee
		{
			OFFSET 0.043451 -0.386469 0.008037
			CHANNELS 3 Zrotation Yrotation Xrotation
			JOINT lankle
			{
				OFFSET -0.014790 -0.426874 -0.037428
				CHANNELS 3 Zrotation Yrotation Xrotation
				JOINT ltoe
				{
					OFFSET 0.041054 -0.060286 0.122042
					CHANNELS 3 Zrotation Yrotation Xrotation
					End Site
					{
						OFFSET 0.000000 0.000000 0.000000
					}
				}
			}
		}
	}
	JOINT rhip
	{
		OFFSET -0.060310 -0.090513 -0.013543
		CHANNELS 3 Zrotation Yrotation Xrotation
		JOINT rknee
		{
			OFFSET -0.043257 -0.383688 -0.004843
			CHANNELS 3 Zrotation Yrotation Xrotation
			JOINT rankle
			{
				OFFSET 0.019056 -0.420046 -0.034562
				CHANNELS 3 Zrotation Yrotation Xrotation
				JOINT rtoe
				{
					OFFSET -0.034840 -0.062106 0.130323
					CHANNELS 3 Zrotation Yrotation Xrotation
					End Site
					{
						OFFSET 0.000000 0.000000 0.000000
					}
				}
			}
		}
	}
	JOINT lowerback
	{
		OFFSET 0.004439 0.124404 -0.038385
		CHANNELS 3 Zrotation Yrotation Xrotation
		JOINT upperback
		{
			OFFSET 0.004488 0.137956 0.026820
			CHANNELS 3 Zrotation Yrotation Xrotation
			JOINT chest
			{
				OFFSET -0.002265 0.056032 0.002855
				CHANNELS 3 Zrotation Yrotation Xrotation
				JOINT lowerneck
				{
					OFFSET -0.013390 0.211636 -0.033468
					CHANNELS 3 Zrotation Yrotation Xrotation
					JOINT upperneck
					{
						OFFSET 0.010113 0.088937 0.050410
						CHANNELS 3 Zrotation Yrotation Xrotation
						End Site
						{
							OFFSET 0.000000 0.000000 0.000000
						}
					}
				}
				JOINT lclavicle
				{
					OFFSET 0.071702 0.114000 -0.018898
					CHANNELS 3 Zrotation Yrotation Xrotation
					JOINT lshoulder
					{
						OFFSET 0.122921 0.045205 -0.019046
						CHANNELS 3 Zrotation Yrotation Xrotation
						JOINT lelbow
						{
							OFFSET 0.255332 -0.015649 -0.022946
							CHANNELS 3 Zrotation Yrotation Xrotation
							JOINT lwrist
							{
								OFFSET 0.265709 0.012698 -0.007375
								CHANNELS 3 Zrotation Yrotation Xrotation
								End Site
								{
									OFFSET 0.000000 0.000000 0.000000
								}
							}
						}
					}
				}
				JOINT rclavicle
				{
					OFFSET -0.082954 0.112472 -0.023707
					CHANNELS 3 Zrotation Yrotation Xrotation
					JOINT rshoulder
					{
						OFFSET -0.113228 0.046853 -0.008472
						CHANNELS 3 Zrotation Yrotation Xrotation
						JOINT relbow
						{
							OFFSET -0.260127 -0.014369 -0.031269
							CHANNELS 3 Zrotation Yrotation Xrotation
							JOINT rwrist
							{
								OFFSET -0.269108 0.006794 -0.006027
								CHANNELS 3 Zrotation Yrotation Xrotation
								End Site
								{
									OFFSET 0.000000 0.000000 0.000000
								}
							}
						}
					}
				}
			}
		}
	}
}
MOTION
Frames: 5
Frame Time: 0.033333
0.101524 0.742172 1.232676 -89.722859 -0.028063 109.723342 -1.080372 1.104440 -8.435673 1.977516 5.787092 -3.109678 -0.902052 15.151731 45.572544 0.000000 -0.000000 0.000000 3.283718 -9.645625 -6.673453 -0.171701 -4.629115 4.752695 4.647900 -13.941932 45.258029 0.000000 -0.000000 0.000000 -0.229624 5.175738 4.209434 -2.911350 -3.110176 -1.931240 1.444462 3.960315 -2.945994 -8.083565 -3.500307 4.536359 10.634033 -4.011250 -21.366280 10.761631 -22.152130 -11.537812 14.600033 -11.291256 -20.751662 5.405384 -17.167060 -17.286070 -13.133824 -6.354204 10.413746 -14.513471 23.704561 -2.742055 -14.510215 7.139324 -38.104539 -13.489942 18.089095 -28.472053 6.612748 1.013470 19.386756 
0.069991 0.743781 1.249535 -88.242171 -0.531570 108.382623 -0.986804 0.189898 -14.825593 1.973216 6.892536 -3.135665 -0.870379 13.930285 44.431703 0.000000 -0.000000 0.000000 3.450268 -8.800890 -13.645857 0.385260 -5.873592 5.397327 4.658613 -12.958223 44.541411 0.000000 -0.000000 0.000000 0.160378 4.889504 9.232131 -2.799432 -3.545576 -0.245863 1.746450 3.793116 -4.532376 -7.403920 -4.429244 2.017372 10.808460 -4.751255 -20.020565 7.541151 -26.338686 -10.741761 11.026651 -14.836377 -19.359905 6.358981 -16.945758 -19.626119 -10.895301 -7.146072 8.810301 -11.297954 27.574547 -2.015200 -11.360444 10.981569 -36.679059 -12.134137 16.378502 -28.715703 3.530881 1.841884 21.116953 
0.042011 0.746653 1.255056 -86.851815 -0.731007 106.612500 -0.541650 -0.708121 -21.811044 1.974596 7.488641 -1.983757 0.204075 13.064369 43.852287 0.000000 -0.000000 0.000000 3.477672 -7.604604 -21.047734 0.438904 -6.433655 4.933171 3.752959 -12.843029 43.480107 0.000000 -0.000000 0.000000 0.748011 4.380023 16.334948 -2.527164 -4.291246 0.315602 2.667155 3.240215 -5.785916 -7.791105 -5.067985 -2.282092 11.336563 -3.931588 -18.445112 3.644613 -32.588994 -9.446744 10.249117 -16.943682 -17.803785 7.219798 -18.649108 -19.095267 -8.912494 -7.617508 7.552668 -7.472871 32.817594 -0.666798 -9.064523 13.601942 -32.473795 -10.774462 19.770495 -24.552783 3.967774 1.580194 17.100941 
0.013223 0.749283 1.245124 -86.065268 -0.972206 105.079666 -0.365117 -1.447650 -28.815326 1.938924 8.606789 -0.906919 -0.754024 11.949495 40.952722 0.000000 -0.000000 0.000000 2.840348 -6.479591 -28.825808 0.024742 -7.137331 3.367105 3.957361 -12.265625 42.487033 0.000000 -0.000000 0.000000 1.455648 3.777639 23.362182 -2.514700 -4.828099 0.559337 3.227204 3.113670 -6.812132 -7.957039 -4.715996 -6.863865 11.638479 -4.193014 -17.328522 1.450705 -39.235306 -8.656200 9.990931 -20.343622 -17.079951 7.839671 -18.936919 -18.808099 -4.851615 -9.967471 5.463854 -3.657680 39.715468 1.206477 -8.117109 17.485314 -31.240036 -9.910108 19.152108 -23.685451 1.393623 3.004930 15.352546 
-0.021856 0.749990 1.221013 -85.528353 -1.475680 103.635344 -0.480446 -2.424482 -34.366752 2.155856 10.676532 -0.088213 -2.113187 10.330024 39.853644 0.000000 -0.000000 0.000000 1.677759 -6.276511 -35.124499 -0.869812 -8.716714 -0.026201 4.556661 -11.329521 41.694812 0.000000 -0.000000 0.000000 2.103597 3.306808 28.790473 -2.479306 -5.066228 0.980949 3.553319 3.102442 -7.568834 -8.262356 -4.380109 -10.982489 11.158930 -5.457530 -15.991648 0.812662 -43.982206 -8.387448 5.680735 -25.809737 -15.891973 10.730222 -19.387270 -19.524452 -3.095898 -12.165629 3.010433 -0.384909 44.605885 2.433440 -4.296957 23.362202 -29.396524 -10.447871 18.580767 -22.648924 1.391817 3.360522 14.707844 
